<?xml version="1.0" standalone="no"?>
<!DOCTYPE svg PUBLIC "-//W3C//DTD SVG 20010904//EN"
 "http://www.w3.org/TR/2001/REC-SVG-20010904/DTD/svg10.dtd">
<svg version="1.0" xmlns="http://www.w3.org/2000/svg"
 width="920.000000pt" height="920.000000pt" viewBox="0 0 920.000000 920.000000"
 preserveAspectRatio="xMidYMid meet">
<metadata>
Created by potrace 1.11, written by Peter Selinger 2001-2013
</metadata>
<g transform="translate(0.000000,920.000000) scale(0.100000,-0.100000)"
fill="#000000" stroke="none">
<path d="M4101 9181 c-15 -12 -22 -24 -18 -34 3 -9 2 -19 -2 -22 -5 -3 -5 -20
-1 -39 4 -19 4 -39 0 -46 -4 -7 -4 -27 0 -45 4 -18 4 -39 0 -45 -4 -7 -4 -26
0 -41 5 -16 5 -31 0 -34 -4 -3 -4 -21 0 -40 4 -19 4 -37 0 -40 -5 -3 -5 -18
-1 -33 4 -15 6 -38 4 -52 -2 -14 -3 -46 -3 -72 0 -27 0 -55 0 -63 0 -8 0 -22
0 -30 0 -8 0 -36 0 -62 0 -27 -1 -59 -3 -73 -1 -14 0 -40 4 -58 4 -17 3 -34
-1 -37 -5 -3 -5 -18 0 -34 4 -15 4 -34 0 -41 -4 -6 -4 -27 0 -45 4 -18 4 -39
0 -45 -4 -7 -4 -26 0 -41 5 -16 5 -31 0 -34 -4 -3 -5 -20 -1 -37 3 -18 4 -55
1 -83 -3 -27 -3 -63 0 -80 3 -16 3 -45 0 -64 -5 -33 -6 -34 -22 -18 -9 9 -19
17 -23 17 -3 0 -11 5 -18 10 -41 35 -148 110 -156 110 -5 0 -11 3 -13 8 -3 6
-63 51 -179 132 -100 70 -419 298 -484 346 -51 38 -94 50 -118 32 -19 -14 -41
-88 -27 -88 5 0 5 -13 0 -30 -5 -16 -6 -30 -2 -30 8 0 7 -84 -1 -97 -3 -5 -2
-15 3 -23 5 -8 5 -21 -1 -31 -5 -11 -5 -20 0 -23 5 -3 6 -21 1 -39 -4 -18 -3
-43 1 -55 5 -12 4 -24 -1 -27 -7 -4 -7 -13 0 -24 5 -10 7 -21 3 -24 -8 -9 -9
-227 -1 -227 4 0 3 -13 -2 -30 -5 -16 -6 -30 -2 -30 8 0 8 -58 -1 -66 -3 -3
-2 -17 3 -30 6 -14 6 -26 0 -29 -6 -3 -6 -15 0 -29 5 -13 6 -26 3 -29 -8 -8
-9 -87 -1 -87 4 0 3 -13 -2 -30 -5 -16 -5 -30 0 -30 4 0 4 -15 0 -34 -4 -18
-4 -40 1 -48 4 -7 4 -20 -1 -28 -4 -7 -4 -24 0 -36 6 -14 5 -26 0 -29 -6 -4
-7 -13 -2 -23 5 -9 6 -27 3 -40 l-6 -24 -25 21 c-14 11 -30 25 -37 31 -7 5
-17 10 -22 10 -6 0 -18 8 -28 18 -26 26 -121 92 -133 92 -6 0 -10 3 -10 8 0 4
-17 18 -38 32 -20 14 -41 29 -47 33 -11 8 -170 122 -223 159 -18 13 -39 28
-46 33 -6 6 -19 15 -28 20 -18 11 -157 110 -173 122 -71 57 -148 103 -168 101
-20 -3 -69 -38 -53 -38 2 0 1 -12 -3 -27 -5 -16 -5 -37 -1 -48 4 -11 4 -33 0
-50 -4 -17 -3 -41 1 -53 5 -12 4 -24 -1 -27 -5 -3 -6 -16 -1 -28 4 -12 4 -35
1 -52 -3 -16 -3 -40 1 -52 5 -12 4 -25 -1 -28 -5 -3 -6 -16 -2 -28 4 -12 6
-37 5 -54 -6 -73 -5 -131 1 -142 4 -6 2 -11 -4 -11 -6 0 -8 -5 -5 -11 4 -6 7
-32 6 -57 0 -26 -1 -71 -1 -99 0 -29 0 -61 0 -70 0 -10 0 -27 0 -38 2 -53 2
-71 0 -80 -4 -26 -2 -104 4 -114 4 -6 2 -11 -4 -11 -6 0 -8 -5 -5 -11 4 -6 7
-32 6 -57 0 -26 -1 -69 -2 -97 -1 -27 0 -54 1 -60 1 -5 2 -25 1 -44 -1 -27 -4
-31 -14 -22 -8 6 -17 9 -20 6 -4 -3 -5 -2 -2 1 2 4 -13 18 -33 32 -20 13 -135
95 -255 181 -120 86 -242 171 -270 190 -29 18 -53 38 -55 42 -2 5 -10 9 -17 9
-7 0 -15 4 -17 8 -7 17 -268 196 -291 199 -12 2 -32 -3 -42 -11 -20 -14 -20
-44 -23 -2033 -1 -1110 0 -2031 3 -2048 3 -20 17 -38 43 -55 62 -41 147 -105
150 -112 2 -5 9 -8 15 -8 7 0 26 -11 42 -25 17 -13 80 -59 140 -102 61 -42
112 -81 113 -85 2 -4 8 -8 13 -8 6 0 15 -5 22 -10 7 -6 64 -48 127 -92 63 -45
178 -128 255 -183 77 -56 155 -110 173 -120 17 -11 32 -23 32 -27 0 -4 6 -8
14 -8 8 0 16 -4 18 -8 2 -5 32 -28 68 -53 36 -24 67 -46 70 -49 3 -3 37 -28
75 -55 39 -27 72 -53 73 -57 2 -4 8 -8 14 -8 6 0 30 -16 54 -35 23 -19 45 -35
48 -35 5 0 125 -86 153 -110 7 -5 16 -10 22 -10 5 0 11 -3 13 -8 2 -4 50 -41
108 -82 58 -41 107 -77 110 -80 3 -3 12 -9 22 -15 9 -5 54 -37 100 -70 45 -33
97 -69 113 -81 74 -51 192 -136 208 -150 9 -7 20 -14 23 -14 2 0 10 -5 17 -10
10 -9 55 -42 142 -104 11 -8 135 -96 275 -196 140 -99 263 -187 273 -195 9 -8
22 -15 27 -15 6 0 10 -3 10 -7 0 -5 18 -19 40 -33 22 -13 40 -28 40 -32 0 -4
5 -8 11 -8 9 0 77 -46 120 -82 9 -7 23 -17 31 -23 46 -30 421 -296 462 -328
17 -12 33 -21 38 -19 4 1 8 -2 8 -7 0 -13 130 -99 162 -106 37 -9 73 23 66 59
-3 14 -2 26 1 26 3 0 6 38 6 85 0 47 -3 85 -6 85 -4 0 -3 18 1 40 4 22 4 40 0
40 -4 0 -4 20 0 44 3 24 3 52 -1 63 -4 11 -4 25 1 32 4 7 4 28 0 47 -4 19 -4
36 0 39 4 3 4 20 0 39 -4 19 -4 40 0 47 5 7 5 22 0 34 -5 12 -5 27 0 34 4 7 4
28 0 47 -4 19 -4 36 0 39 4 3 4 20 0 39 -4 19 -4 40 0 47 5 7 5 22 0 34 -5 12
-5 27 0 34 4 7 4 28 0 47 -4 19 -4 36 0 39 4 3 4 20 0 39 -4 19 -4 40 0 47 5
7 5 22 0 34 -5 12 -5 27 0 34 4 7 4 28 0 47 -4 19 -4 36 0 39 4 3 4 20 0 39
-4 19 -4 39 0 46 4 7 5 21 2 32 -6 24 -5 24 94 -47 38 -27 71 -53 72 -57 2 -5
8 -8 14 -8 6 0 23 -10 38 -22 15 -13 37 -30 50 -38 12 -8 45 -32 73 -52 29
-20 67 -47 85 -60 18 -13 46 -33 62 -45 15 -13 32 -23 37 -23 5 0 15 -9 23
-20 8 -11 20 -20 26 -20 7 0 19 -6 26 -13 7 -7 45 -35 83 -62 39 -27 75 -54
82 -60 38 -34 189 -130 207 -132 36 -5 69 31 64 67 -3 16 -1 30 3 30 4 0 4 13
-1 29 -4 15 -4 34 1 42 4 7 4 19 -2 25 -7 8 -6 14 1 19 7 4 7 12 0 25 -6 11
-6 21 -1 25 6 3 6 17 1 35 -5 18 -5 32 1 35 5 4 5 14 -1 25 -7 13 -7 21 0 25
7 5 8 11 1 19 -6 7 -6 17 -1 26 5 8 5 21 0 30 -5 9 -5 22 0 30 5 9 5 19 -1 26
-7 8 -6 14 1 19 7 4 7 12 0 25 -6 11 -6 21 -1 25 6 3 6 17 1 35 -5 18 -5 32 1
35 5 4 5 14 -1 25 -7 13 -7 21 0 25 8 5 8 11 1 19 -6 7 -8 16 -5 19 9 8 9 85
1 93 -3 4 -2 14 3 23 5 10 5 22 2 28 -9 14 -7 82 2 90 3 4 1 12 -5 19 -7 8 -7
14 1 19 7 4 7 12 0 25 -6 11 -6 21 -1 25 6 3 6 17 1 35 -5 18 -5 32 1 35 5 4
5 14 -1 25 -7 13 -7 21 0 25 8 5 8 11 1 19 -6 7 -8 15 -5 19 8 7 11 97 3 97
-3 0 -4 13 -1 30 4 29 4 29 31 12 14 -9 31 -21 37 -27 14 -12 257 -185 281
-200 9 -5 55 -38 102 -72 47 -34 100 -72 116 -83 17 -12 69 -49 117 -83 47
-34 96 -69 108 -77 12 -8 47 -33 78 -56 32 -22 71 -47 89 -56 31 -15 33 -15
57 7 21 20 25 31 23 69 -1 25 0 46 3 46 7 0 3 147 -4 166 -3 7 -1 14 4 14 5 0
5 13 0 30 -5 17 -6 30 -2 30 8 0 7 68 -1 76 -3 3 -2 17 3 30 5 13 6 25 2 28
-8 5 -7 74 2 83 3 3 1 13 -4 22 -5 10 -5 23 0 31 4 7 4 24 0 36 -6 14 -5 26 0
29 5 3 5 18 0 35 -5 17 -6 30 -2 30 8 0 6 144 -2 166 -3 7 -1 14 4 14 5 0 5
13 0 30 -5 17 -6 30 -2 30 4 0 7 16 7 35 0 19 -3 35 -7 35 -4 0 -3 13 2 30 5
17 5 32 0 35 -5 3 -7 11 -5 18 8 21 10 137 3 137 -4 0 -3 13 2 30 5 16 5 30 1
30 -5 0 -6 11 -3 25 5 28 17 32 37 13 13 -13 141 -103 174 -123 9 -5 18 -12
21 -15 3 -3 21 -17 40 -30 19 -13 37 -27 40 -30 3 -3 29 -21 58 -40 28 -18 52
-37 52 -42 0 -4 6 -8 13 -8 6 0 23 -9 37 -21 14 -11 88 -64 165 -119 77 -54
145 -103 150 -107 52 -43 179 -123 194 -123 11 0 29 10 41 22 20 22 20 23 20
2053 l0 2032 -22 20 c-38 34 -207 153 -218 153 -5 0 -10 4 -10 8 0 5 -23 23
-50 41 -28 18 -56 38 -63 44 -6 7 -41 32 -77 57 -36 24 -66 48 -68 52 -2 4 -8
8 -13 8 -5 0 -52 32 -104 70 -52 39 -99 70 -105 70 -5 0 -10 4 -10 8 0 4 -12
15 -27 24 -16 9 -37 24 -48 33 -11 9 -81 59 -155 111 -74 53 -147 104 -161
115 -14 10 -54 39 -90 64 -35 25 -73 51 -84 59 -22 16 -391 279 -415 296 -89
63 -539 384 -550 393 -8 7 -29 21 -45 31 -17 11 -36 26 -43 33 -7 7 -20 13
-28 13 -8 0 -14 4 -14 9 0 4 -35 32 -77 61 -43 29 -79 57 -81 62 -2 4 -8 8
-13 8 -8 0 -71 45 -122 86 -9 8 -20 14 -23 14 -3 0 -41 27 -85 60 -44 33 -84
60 -88 60 -5 0 -11 4 -13 8 -1 4 -39 33 -83 63 -44 29 -82 56 -85 59 -12 13
-148 110 -154 110 -6 0 -36 23 -61 48 -8 6 -16 12 -19 12 -5 0 -123 86 -158
115 -10 8 -18 12 -18 8 0 -3 -10 3 -22 14 -37 32 -278 203 -288 203 -4 0 -10
4 -12 8 -1 4 -43 37 -93 72 -49 35 -91 68 -93 72 -2 4 -8 8 -12 8 -5 0 -26 11
-46 25 -44 30 -61 31 -93 6z"/>
</g>
</svg>
